<?xml version="1.0" encoding="UTF-8"?>
<svg version="1.1" xmlns="http://www.w3.org/2000/svg" width="129" height="139">
<path d="M0 0 C2.2890625 1.25 2.2890625 1.25 4.625 3 C5.48222656 3.63164062 6.33945313 4.26328125 7.22265625 4.9140625 C8.13917969 5.60242188 9.05570313 6.29078125 10 7 C12.01967179 8.45994155 14.04048392 9.91830701 16.0625 11.375 C20.86153846 14.86153846 20.86153846 14.86153846 22 16 C22.08651611 17.41570123 22.10704904 18.835595 22.09765625 20.25390625 C22.09282227 21.53491211 22.09282227 21.53491211 22.08789062 22.84179688 C22.07532227 24.18854492 22.07532227 24.18854492 22.0625 25.5625 C22.05798828 26.46419922 22.05347656 27.36589844 22.04882812 28.29492188 C22.03700225 30.53001314 22.0205222 32.76497437 22 35 C22.70600342 35.27070312 23.41200684 35.54140625 24.1394043 35.8203125 C29.70361839 38.11495127 34.21186326 40.16265694 38 45 C39.83212094 51.42936405 39.03070968 58.40778381 38.6875 65 C38.63226657 66.84230199 38.58208627 68.68476283 38.53710938 70.52734375 C38.41643182 75.02217619 38.22700981 79.5093332 38 84 C40.97 84 43.94 84 47 84 C48 88 48 88 47 92 C14.66 92 -17.68 92 -51 92 C-51.33 89.69 -51.66 87.38 -52 85 C-51 84 -51 84 -49.15234375 83.90234375 C-47.1015625 83.93489583 -45.05078125 83.96744792 -43 84 C-43.01571045 82.90534424 -43.0314209 81.81068848 -43.04760742 80.68286133 C-43.1020211 76.61083369 -43.13639156 72.53883803 -43.16479492 68.46655273 C-43.17985553 66.70608104 -43.20030826 64.9456467 -43.22631836 63.18530273 C-43.26282229 60.65078497 -43.27975354 58.11676448 -43.29296875 55.58203125 C-43.31619453 54.40674614 -43.31619453 54.40674614 -43.33988953 53.2077179 C-43.34129847 48.604008 -42.87276399 45.64741319 -40 42 C-37.37109375 39.98046875 -37.37109375 39.98046875 -34.4375 38.1875 C-33.46683594 37.58292969 -32.49617188 36.97835937 -31.49609375 36.35546875 C-29 35 -29 35 -27 35 C-27.05800781 33.68644531 -27.11601563 32.37289062 -27.17578125 31.01953125 C-27.22269048 29.28388977 -27.26818939 27.54820977 -27.3125 25.8125 C-27.35439453 24.94818359 -27.39628906 24.08386719 -27.43945312 23.19335938 C-27.52414932 18.7722182 -27.52392098 16.69209315 -24.78515625 13.07421875 C-22.28255035 11.2104267 -19.84316034 9.52842243 -17.125 8 C-13.97876173 6.19547107 -11.05400134 4.34544086 -8.1875 2.125 C-4.78966118 -0.14022588 -3.90993462 -0.48358166 0 0 Z M-11.5 13.875 C-12.10714844 14.23980469 -12.71429688 14.60460937 -13.33984375 14.98046875 C-16.73496654 16.9293445 -16.73496654 16.9293445 -19 20 C-19.0689472 21.37342831 -19.08467708 22.75002102 -19.0625 24.125 C-19.041875 25.40375 -19.02125 26.6825 -19 28 C-17.8553125 27.5359375 -17.8553125 27.5359375 -16.6875 27.0625 C-14.81210323 26.32106407 -12.91315348 25.63771783 -11 25 C-11.01571045 26.03406982 -11.0314209 27.06813965 -11.04760742 28.13354492 C-11.10204054 31.98193527 -11.13639849 35.83029179 -11.16479492 39.67895508 C-11.17985114 41.34242481 -11.20030063 43.00585505 -11.22631836 44.66918945 C-11.26284207 47.06471522 -11.27975782 49.45971467 -11.29296875 51.85546875 C-11.30845261 52.5952446 -11.32393646 53.33502045 -11.33988953 54.09721375 C-11.34133257 58.55733749 -10.83298915 61.48943526 -8 65 C-7.34 65 -6.68 65 -6 65 C-6.47716914 68.81735312 -7.07825006 72.46689561 -8.0625 76.1875 C-9.15919208 79.99303535 -9.15919208 79.99303535 -9 84 C-4.71 84 -0.42 84 4 84 C3.855625 82.515 3.71125 81.03 3.5625 79.5 C3.47742188 78.58863281 3.39234375 77.67726563 3.3046875 76.73828125 C3.04284836 74.06856793 3.04284836 74.06856793 2.5703125 71.73046875 C2.1875 69.6875 2.1875 69.6875 2 66 C3.9375 63.375 3.9375 63.375 6 61 C6.75 58 6.75 58 6 55 C3.8744845 52.04089856 3.8744845 52.04089856 1 50 C-0.32 50 -1.64 50 -3 50 C-2.99476318 49.42781738 -2.98952637 48.85563477 -2.98413086 48.26611328 C-2.88320536 35.46773747 -3.11719652 22.76912182 -4 10 C-6.50573967 10 -9.35096462 12.55637744 -11.5 13.875 Z M-33.72756958 47.39929199 C-35.99293189 50.24910093 -35.7557574 53.43210566 -35.62109375 56.890625 C-35.61497574 57.63584412 -35.60885773 58.38106323 -35.60255432 59.14886475 C-35.57571003 61.51731099 -35.50658164 63.8824495 -35.4375 66.25 C-35.41596674 67.85673747 -35.39705828 69.4635124 -35.38085938 71.0703125 C-35.87706346 78.02347163 -35.87706346 78.02347163 -34 84 C-31.66702567 84.04092937 -29.33294775 84.04241723 -27 84 C-25.85595013 79.90319435 -25.87390533 75.95946469 -25.90234375 71.734375 C-25.9037587 70.94097717 -25.90517365 70.14757935 -25.90663147 69.33013916 C-25.91221585 66.80338728 -25.92476546 64.27672496 -25.9375 61.75 C-25.94251702 60.03385545 -25.94707957 58.31770951 -25.95117188 56.6015625 C-25.96218016 52.40100731 -25.97943404 48.20051883 -26 44 C-29.55893164 44 -31.09318499 45.07597019 -33.72756958 47.39929199 Z M22 44 C22 57.2 22 70.4 22 84 C24.64 84 27.28 84 30 84 C30.12371396 78.94637979 30.21439046 73.89364298 30.2746582 68.83886719 C30.29978367 67.11996099 30.33389047 65.40116144 30.37719727 63.68261719 C30.43794029 61.21001886 30.46622762 58.73883394 30.48828125 56.265625 C30.51408768 55.49881409 30.5398941 54.73200317 30.56648254 53.94195557 C30.56851815 50.0586651 30.34622334 48.37187352 27.65698242 45.48339844 C25.07060285 43.75626286 25.07060285 43.75626286 22 44 Z " fill="#9B7B39" transform="translate(68,26)"/>
<path d="M0 0 C5.82885374 0.51700849 9.43397381 2.83319158 14.1640625 6.0859375 C16.9081377 8.02800728 16.9081377 8.02800728 19.7109375 9.3515625 C22.67355862 11.02446212 24.17552105 12.09581733 26 15 C27.09433471 21.27050962 26.51023239 27.69453557 26 34 C26.71639648 34.27199219 27.43279297 34.54398438 28.17089844 34.82421875 C33.0880539 36.8678001 37.36791303 39.02729949 41 43 C42.27066085 47.38955565 42.04449392 51.47088666 41.75 56 C41.70746094 57.72476563 41.70746094 57.72476563 41.6640625 59.484375 C41.46341614 65.2897429 40.94416764 70.51808468 39 76 C38.34 76 37.68 76 37 76 C36.1367399 72.28111134 35.88278444 68.85703512 35.90234375 65.04296875 C35.90556641 63.93115234 35.90878906 62.81933594 35.91210938 61.67382812 C35.92467773 59.9480957 35.92467773 59.9480957 35.9375 58.1875 C35.94201172 57.01767578 35.94652344 55.84785156 35.95117188 54.64257812 C35.9629307 51.76166642 35.97936574 48.88085956 36 46 C34.35 46 32.7 46 31 46 C30.7525 45.360625 30.505 44.72125 30.25 44.0625 C29.03378366 41.50980961 29.03378366 41.50980961 25 41 C25 48.59 25 56.18 25 64 C18 66 18 66 15 65 C15 64.34 15 63.68 15 63 C13.68 63 12.36 63 11 63 C10.95101562 62.31292969 10.90203125 61.62585938 10.8515625 60.91796875 C10.73941406 59.56638672 10.73941406 59.56638672 10.625 58.1875 C10.55539063 57.29417969 10.48578125 56.40085938 10.4140625 55.48046875 C10.13354964 52.75601501 10.13354964 52.75601501 8 50 C6.02 49.34 4.04 48.68 2 48 C2 34.14 2 20.28 2 6 C1.01 6.66 0.02 7.32 -1 8 C-1.99 8 -2.98 8 -4 8 C-4.33 7.01 -4.66 6.02 -5 5 C-4.01 5 -3.02 5 -2 5 C-1.7834375 4.0409375 -1.7834375 4.0409375 -1.5625 3.0625 C-1 1 -1 1 0 0 Z " fill="#E6CD79" transform="translate(64,27)"/>
<path d="M0 0 C2.25 0.875 2.25 0.875 4 2 C4 2.66 4 3.32 4 4 C3.01 4.495 3.01 4.495 2 5 C1.67 17.54 1.34 30.08 1 43 C4.63 43 8.26 43 12 43 C12 31.45 12 19.9 12 8 C12.33 8.66 12.66 9.32 13 10 C15.52733235 10.65555119 15.52733235 10.65555119 18 11 C18 11.66 18 12.32 18 13 C20.31 13 22.62 13 25 13 C25 15.97 25 18.94 25 22 C27.475 22.99 27.475 22.99 30 24 C29.46048934 30.68993219 28.11293829 36.63460728 26 43 C27.13179687 42.97679687 28.26359375 42.95359375 29.4296875 42.9296875 C30.91145175 42.91093099 32.39322312 42.89273066 33.875 42.875 C34.62136719 42.85824219 35.36773437 42.84148437 36.13671875 42.82421875 C38.09194461 42.8066041 40.04742021 42.89679811 42 43 C42.66 43.66 43.32 44.32 44 45 C43.505 45.99 43.505 45.99 43 47 C43.99 47.495 43.99 47.495 45 48 C41.79667766 48.9501315 38.9239887 49.12131773 35.58886719 49.11352539 C34.50804871 49.11344986 33.42723022 49.11337433 32.31365967 49.11329651 C31.15312073 49.10813522 29.99258179 49.10297394 28.796875 49.09765625 C27.60394836 49.0962413 26.41102173 49.09482635 25.1819458 49.09336853 C21.37127171 49.08777038 17.56065634 49.07521819 13.75 49.0625 C11.16666752 49.05748476 8.58333411 49.0529219 6 49.04882812 C-0.33335337 49.03780155 -6.66667249 49.02106524 -13 49 C-13 47.02 -13 45.04 -13 43 C-10.03 43 -7.06 43 -4 43 C-4 29.47 -4 15.94 -4 2 C-2.68 1.34 -1.36 0.68 0 0 Z " fill="#CAAD5D" transform="translate(31,68)"/>
<path d="M0 0 C1.32 0.66 2.64 1.32 4 2 C3.01 2 2.02 2 1 2 C1 15.2 1 28.4 1 42 C3.64 42 6.28 42 9 42 C8.67 29.79 8.34 17.58 8 5 C8.99 5 9.98 5 11 5 C11.02505615 5.74161377 11.0501123 6.48322754 11.07592773 7.24731445 C11.19186132 10.60255328 11.31459985 13.95750944 11.4375 17.3125 C11.47681641 18.47974609 11.51613281 19.64699219 11.55664062 20.84960938 C11.59853516 21.96787109 11.64042969 23.08613281 11.68359375 24.23828125 C11.72025146 25.26993408 11.75690918 26.30158691 11.79467773 27.36450195 C11.90161242 30.10748258 11.90161242 30.10748258 13 33 C12.505 33.99 12.505 33.99 12 35 C12.66 34.67 13.32 34.34 14 34 C14.90331936 29.99391166 15.16863343 26.04073068 15.31640625 21.9453125 C15.35830078 20.83671875 15.40019531 19.728125 15.44335938 18.5859375 C15.48267578 17.44382812 15.52199219 16.30171875 15.5625 15.125 C15.62727539 13.37703125 15.62727539 13.37703125 15.69335938 11.59375 C15.79901629 8.72927375 15.90111799 5.86471679 16 3 C16.33 3 16.66 3 17 3 C17 15.87 17 28.74 17 42 C19.97 42 22.94 42 26 42 C27 46 27 46 26 50 C-6.34 50 -38.68 50 -72 50 C-72.33 47.69 -72.66 45.38 -73 43 C-72 42 -72 42 -70.15234375 41.90234375 C-68.1015625 41.93489583 -66.05078125 41.96744792 -64 42 C-64.01047363 40.89487061 -64.02094727 39.78974121 -64.03173828 38.65112305 C-64.06792407 34.55301144 -64.09089529 30.45491397 -64.10986328 26.35668945 C-64.11992411 24.58257676 -64.13357422 22.80848065 -64.15087891 21.03442383 C-64.17512378 18.48514716 -64.18648218 15.93608963 -64.1953125 13.38671875 C-64.20563507 12.59287277 -64.21595764 11.79902679 -64.22659302 10.98112488 C-64.2273811 7.11776957 -64.19440369 5.29160554 -62 2 C-62 15.53 -62 29.06 -62 43 C-64.97 43 -67.94 43 -71 43 C-71 44.98 -71 46.96 -71 49 C-63.60233043 48.90666904 -56.20495577 48.7992462 -48.80761719 48.68261719 C-46.2978972 48.64463989 -43.78812855 48.60973633 -41.27832031 48.578125 C-27.73469768 48.4054573 -14.38820827 48.21144512 -1 46 C-1 45.34 -1 44.68 -1 44 C-1.66 43.34 -2.32 42.68 -3 42 C-3.01171875 40.01171875 -3.01171875 40.01171875 -2.6875 37.6875 C-2.58824219 36.92824219 -2.48898438 36.16898438 -2.38671875 35.38671875 C-2.13573179 33.83769824 -1.84093594 32.29491352 -1.49560547 30.76416016 C-0.93078208 27.61394811 -0.78584198 24.5856276 -0.68359375 21.38671875 C-0.64169922 20.13955078 -0.59980469 18.89238281 -0.55664062 17.60742188 C-0.51732422 16.31384766 -0.47800781 15.02027344 -0.4375 13.6875 C-0.37272461 11.71813477 -0.37272461 11.71813477 -0.30664062 9.70898438 C-0.20072773 6.47275712 -0.09865115 3.23645542 0 0 Z " fill="#694D51" transform="translate(89,68)"/>
<path d="M0 0 C0.495 0.99 0.495 0.99 1 2 C-0.65 2 -2.3 2 -4 2 C-4.433125 2.9590625 -4.433125 2.9590625 -4.875 3.9375 C-6 6 -6 6 -8 7 C-8 7.66 -8 8.32 -8 9 C-6.02 8.34 -4.04 7.68 -2 7 C-2 20.86 -2 34.72 -2 49 C-1.01 49.33 -0.02 49.66 1 50 C-0.32 50 -1.64 50 -3 50 C-4.3420958 46.00516796 -4.06713404 41.96686009 -4 37.8125 C-3.9188084 28.83898246 -4.36569237 19.94826831 -5 11 C-5.77085938 11.5053125 -6.54171875 12.010625 -7.3359375 12.53125 C-8.33882812 13.1809375 -9.34171875 13.830625 -10.375 14.5 C-11.37273438 15.1496875 -12.37046875 15.799375 -13.3984375 16.46875 C-16 18 -16 18 -18 18 C-18.33 21.3 -18.66 24.6 -19 28 C-18.34 28.33 -17.68 28.66 -17 29 C-17.33 30.32 -17.66 31.64 -18 33 C-19.65 32.67 -21.3 32.34 -23 32 C-23.33 33.65 -23.66 35.3 -24 37 C-25.98 37.495 -25.98 37.495 -28 38 C-28 38.66 -28 39.32 -28 40 C-27.01 40.33 -26.02 40.66 -25 41 C-25 55.52 -25 70.04 -25 85 C-28.63 85 -32.26 85 -36 85 C-36 72.46 -36 59.92 -36 47 C-34.515 46.505 -34.515 46.505 -33 46 C-33 45.34 -33 44.68 -33 44 C-36.05263664 43.01879536 -37.94736336 43.01879536 -41 44 C-37.5798883 40.15237434 -33.53225744 37.39365978 -29 35 C-28.34 35 -27.68 35 -27 35 C-27.05800781 33.68644531 -27.11601563 32.37289062 -27.17578125 31.01953125 C-27.22269048 29.28388977 -27.26818939 27.54820977 -27.3125 25.8125 C-27.3753418 24.51602539 -27.3753418 24.51602539 -27.43945312 23.19335938 C-27.52414932 18.7722182 -27.52392098 16.69209315 -24.78515625 13.07421875 C-22.28255035 11.2104267 -19.84316034 9.52842243 -17.125 8 C-13.97876173 6.19547107 -11.05400134 4.34544086 -8.1875 2.125 C-4.99451395 -0.00365737 -3.72413833 -0.56426338 0 0 Z M-33.72756958 47.39929199 C-35.99293189 50.24910093 -35.7557574 53.43210566 -35.62109375 56.890625 C-35.61497574 57.63584412 -35.60885773 58.38106323 -35.60255432 59.14886475 C-35.57571003 61.51731099 -35.50658164 63.8824495 -35.4375 66.25 C-35.41596674 67.85673747 -35.39705828 69.4635124 -35.38085938 71.0703125 C-35.87706346 78.02347163 -35.87706346 78.02347163 -34 84 C-31.66702567 84.04092937 -29.33294775 84.04241723 -27 84 C-25.85595013 79.90319435 -25.87390533 75.95946469 -25.90234375 71.734375 C-25.9037587 70.94097717 -25.90517365 70.14757935 -25.90663147 69.33013916 C-25.91221585 66.80338728 -25.92476546 64.27672496 -25.9375 61.75 C-25.94251702 60.03385545 -25.94707957 58.31770951 -25.95117188 56.6015625 C-25.96218016 52.40100731 -25.97943404 48.20051883 -26 44 C-29.55893164 44 -31.09318499 45.07597019 -33.72756958 47.39929199 Z " fill="#9F8060" transform="translate(68,26)"/>
<path d="M0 0 C3.875 1.875 3.875 1.875 5 3 C5.08651611 4.41570123 5.10704904 5.835595 5.09765625 7.25390625 C5.09443359 8.10791016 5.09121094 8.96191406 5.08789062 9.84179688 C5.07951172 10.73962891 5.07113281 11.63746094 5.0625 12.5625 C5.05798828 13.46419922 5.05347656 14.36589844 5.04882812 15.29492188 C5.03700225 17.53001314 5.0205222 19.76497437 5 22 C6.07459473 22.40798828 6.07459473 22.40798828 7.17089844 22.82421875 C12.0880539 24.8678001 16.36791303 27.02729949 20 31 C21.27066085 35.38955565 21.04449392 39.47088666 20.75 44 C20.70746094 45.72476563 20.70746094 45.72476563 20.6640625 47.484375 C20.46341614 53.2897429 19.94416764 58.51808468 18 64 C17.34 64 16.68 64 16 64 C15.1367399 60.28111134 14.88278444 56.85703512 14.90234375 53.04296875 C14.90556641 51.93115234 14.90878906 50.81933594 14.91210938 49.67382812 C14.92048828 48.52333984 14.92886719 47.37285156 14.9375 46.1875 C14.94201172 45.01767578 14.94652344 43.84785156 14.95117188 42.64257812 C14.9629307 39.76166642 14.97936574 36.88085956 15 34 C13.35 34 11.7 34 10 34 C9.7525 33.360625 9.505 32.72125 9.25 32.0625 C8.03378366 29.50980961 8.03378366 29.50980961 4 29 C4 36.59 4 44.18 4 52 C-3 54 -3 54 -6 53 C-6 52.34 -6 51.68 -6 51 C-7.32 51 -8.64 51 -10 51 C-10 48.69 -10 46.38 -10 44 C-9.67 44.99 -9.34 45.98 -9 47 C-5.3393506 47.75366311 -1.69191016 48.38468164 2 49 C2.33 42.07 2.66 35.14 3 28 C0.85008433 28.80184414 0.85008433 28.80184414 0.25 30.8125 C-1.5507235 33.96376612 -3.86158108 35.27066713 -7 37 C-7.99 36.67 -8.98 36.34 -10 36 C-8.99667352 30.05925113 -7.69087294 25.79813482 -4 21 C-3.34 21.33 -2.68 21.66 -2 22 C-1.67 19.36 -1.34 16.72 -1 14 C0.32 14 1.64 14 3 14 C3 10.37 3 6.74 3 3 C2.34 3 1.68 3 1 3 C0.67 2.01 0.34 1.02 0 0 Z " fill="#A88C6E" transform="translate(85,39)"/>
<path d="M0 0 C2.00720923 0.28674418 4.0085944 0.61866701 6 1 C6 4.63 6 8.26 6 12 C4.68 12 3.36 12 2 12 C2 14.64 2 17.28 2 20 C1.01 20 0.02 20 -1 20 C-4.06242216 24.84060277 -5.53411505 28.29290936 -6 34 C-0.54912814 32.06428087 -0.54912814 32.06428087 3.1875 27.875 C3.455625 27.25625 3.72375 26.6375 4 26 C4.66 26 5.32 26 6 26 C6 32.93 6 39.86 6 47 C1.60132909 48.09966773 -0.04491453 47.89760335 -4.10546875 46.29296875 C-7.13722258 44.2238749 -7.97186559 41.44943343 -9.11328125 38.05859375 C-9.92689421 35.65531857 -9.92689421 35.65531857 -13 34 C-12.01 33.505 -12.01 33.505 -11 33 C-9.30436506 30.40667597 -8.9605813 28.63209214 -8.625 25.5 C-7.81852722 20.98375241 -5.99845211 19.43158348 -2.375 16.8359375 C-0.22774387 13.96886255 -0.75254134 11.38308049 -0.875 7.875 C-0.94527509 5.58403216 -0.99413801 3.29203793 -1 1 C-0.67 0.67 -0.34 0.34 0 0 Z " fill="#CEB162" transform="translate(82,41)"/>
<path d="M0 0 C2.25 0.875 2.25 0.875 4 2 C4 2.66 4 3.32 4 4 C3.01 4.495 3.01 4.495 2 5 C1.67 17.54 1.34 30.08 1 43 C4.3 43 7.6 43 11 43 C10.01 43.495 10.01 43.495 9 44 C9 44.66 9 45.32 9 46 C8.34 46 7.68 46 7 46 C7 46.66 7 47.32 7 48 C8.485 48.495 8.485 48.495 10 49 C2.41 49 -5.18 49 -13 49 C-13 47.02 -13 45.04 -13 43 C-10.03 43 -7.06 43 -4 43 C-4 29.47 -4 15.94 -4 2 C-2.68 1.34 -1.36 0.68 0 0 Z " fill="#C1A375" transform="translate(31,68)"/>
<path d="M0 0 C0.99 0 1.98 0 3 0 C3 0.66 3 1.32 3 2 C6.3 1.67 9.6 1.34 13 1 C12.855625 2.464375 12.71125 3.92875 12.5625 5.4375 C12.47613281 6.34628906 12.38976562 7.25507812 12.30078125 8.19140625 C12.10978218 9.97489106 11.88212126 11.75512421 11.60546875 13.52734375 C11.48816406 14.30207031 11.37085937 15.07679687 11.25 15.875 C11.13140625 16.57367188 11.0128125 17.27234375 10.890625 17.9921875 C11.03939146 20.72311473 12.24066207 21.97766826 14 24 C12.46155045 24.36789011 10.91899612 24.71863066 9.375 25.0625 C8.08722656 25.35833984 8.08722656 25.35833984 6.7734375 25.66015625 C3.63769184 26.04439551 1.07852379 25.64549692 -2 25 C-3.50242978 17.07809753 -4.3345093 9.98902187 -3 2 C-2.01 2 -1.02 2 0 2 C0 1.34 0 0.68 0 0 Z " fill="#A17F37" transform="translate(76,90)"/>
<path d="M0 0 C0.66 0.33 1.32 0.66 2 1 C0.3790787 2.17232685 -1.24686833 3.3377077 -2.875 4.5 C-3.77992187 5.1496875 -4.68484375 5.799375 -5.6171875 6.46875 C-8 8 -8 8 -10 8 C-9.67 15.26 -9.34 22.52 -9 30 C-10.32 30.33 -11.64 30.66 -13 31 C-13 31.66 -13 32.32 -13 33 C-12.01 33.33 -11.02 33.66 -10 34 C-10 48.52 -10 63.04 -10 78 C-13.63 78 -17.26 78 -21 78 C-21 65.46 -21 52.92 -21 40 C-19.515 39.505 -19.515 39.505 -18 39 C-18 38.34 -18 37.68 -18 37 C-21.05263664 36.01879536 -22.94736336 36.01879536 -26 37 C-22.5798883 33.15237434 -18.53225744 30.39365978 -14 28 C-13.34 28 -12.68 28 -12 28 C-12.05800781 26.68644531 -12.11601563 25.37289062 -12.17578125 24.01953125 C-12.22269048 22.28388977 -12.26818939 20.54820977 -12.3125 18.8125 C-12.3753418 17.51602539 -12.3753418 17.51602539 -12.43945312 16.19335938 C-12.52536274 11.70887741 -12.52920099 9.68543268 -9.7109375 6.03515625 C-6.50480863 3.62824971 -3.60212963 1.76708246 0 0 Z M-18.72756958 40.39929199 C-20.99293189 43.24910093 -20.7557574 46.43210566 -20.62109375 49.890625 C-20.61497574 50.63584412 -20.60885773 51.38106323 -20.60255432 52.14886475 C-20.57571003 54.51731099 -20.50658164 56.8824495 -20.4375 59.25 C-20.41596674 60.85673747 -20.39705828 62.4635124 -20.38085938 64.0703125 C-20.87706346 71.02347163 -20.87706346 71.02347163 -19 77 C-16.66702567 77.04092937 -14.33294775 77.04241723 -12 77 C-10.85595013 72.90319435 -10.87390533 68.95946469 -10.90234375 64.734375 C-10.9037587 63.94097717 -10.90517365 63.14757935 -10.90663147 62.33013916 C-10.91221585 59.80338728 -10.92476546 57.27672496 -10.9375 54.75 C-10.94251702 53.03385545 -10.94707957 51.31770951 -10.95117188 49.6015625 C-10.96218016 45.40100731 -10.97943404 41.20051883 -11 37 C-14.55893164 37 -16.09318499 38.07597019 -18.72756958 40.39929199 Z " fill="#785D51" transform="translate(53,33)"/>
<path d="M0 0 C0.01981934 1.03930664 0.03963867 2.07861328 0.06005859 3.14941406 C0.13622124 7.01114836 0.224922 10.8725111 0.31738281 14.73388672 C0.35562857 16.40405941 0.39048915 18.07431323 0.421875 19.74462891 C0.46762161 22.14775557 0.52559925 24.55032584 0.5859375 26.953125 C0.59748871 27.69806213 0.60903992 28.44299927 0.62094116 29.21051025 C0.72674195 32.94008194 0.85087805 35.88336666 3 39 C3.54825439 39.4947583 4.09650879 39.9895166 4.66137695 40.49926758 C6 42 6 42 5.97338867 43.90112305 C5.7901001 44.59761963 5.60681152 45.29411621 5.41796875 46.01171875 C5.22783203 46.76904297 5.03769531 47.52636719 4.84179688 48.30664062 C4.62587891 49.09232422 4.40996094 49.87800781 4.1875 50.6875 C3.98318359 51.48478516 3.77886719 52.28207031 3.56835938 53.10351562 C3.06121945 55.07310557 2.53262259 57.03714783 2 59 C6.29 59 10.58 59 15 59 C14.77183594 58.04738281 14.54367188 57.09476563 14.30859375 56.11328125 C14.02113281 54.85902344 13.73367187 53.60476562 13.4375 52.3125 C13.14746094 51.07113281 12.85742188 49.82976562 12.55859375 48.55078125 C12.03290793 45.20918398 11.98701192 43.1886102 13 40 C13.515625 39.360625 14.03125 38.72125 14.5625 38.0625 C16.57269813 35.17830268 16.49260543 33.44823801 16 30 C14.12230858 27.15079947 14.12230858 27.15079947 12 25 C13.875 25.3125 13.875 25.3125 16 26 C18.26954631 29.40431947 18.36549949 31.16524202 18.625 35.1875 C18.69976562 36.27417969 18.77453125 37.36085937 18.8515625 38.48046875 C18.92503906 39.72763672 18.92503906 39.72763672 19 41 C18.01 41 17.02 41 16 41 C15.87913782 47.43255401 16.17648136 53.61773055 17 60 C11.39 60 5.78 60 0 60 C1.32 53.73 2.64 47.46 4 41 C2.35 40.34 0.7 39.68 -1 39 C-1.33 26.79 -1.66 14.58 -2 2 C-3.32 2.33 -4.64 2.66 -6 3 C-3.375 0 -3.375 0 0 0 Z " fill="#6F5456" transform="translate(57,51)"/>
<path d="M0 0 C2 2 2 2 2.1953125 4.1640625 C2.13020833 6.44270833 2.06510417 8.72135417 2 11 C5.3 11 8.6 11 12 11 C11.01 11.495 11.01 11.495 10 12 C10 12.66 10 13.32 10 14 C9.34 14 8.68 14 8 14 C8 14.66 8 15.32 8 16 C8.99 16.33 9.98 16.66 11 17 C3.41 17 -4.18 17 -12 17 C-12 15.02 -12 13.04 -12 11 C-7.545 10.505 -7.545 10.505 -3 10 C-2.87625 8.72125 -2.7525 7.4425 -2.625 6.125 C-2.25 2.25 -2.25 2.25 0 0 Z " fill="#A18260" transform="translate(30,100)"/>
<path d="M0 0 C0.05840224 4.18744075 0.09373166 8.37477565 0.125 12.5625 C0.14175781 13.74392578 0.15851563 14.92535156 0.17578125 16.14257812 C0.2094585 22.15396759 0.11038894 27.34183122 -2 33 C-2.66 33 -3.32 33 -4 33 C-4.8632601 29.28111134 -5.11721556 25.85703512 -5.09765625 22.04296875 C-5.09282227 20.37524414 -5.09282227 20.37524414 -5.08789062 18.67382812 C-5.07951172 17.52333984 -5.07113281 16.37285156 -5.0625 15.1875 C-5.05798828 14.01767578 -5.05347656 12.84785156 -5.04882812 11.64257812 C-5.0370693 8.76166642 -5.02063426 5.88085956 -5 3 C-6.32 2.67 -7.64 2.34 -9 2 C-9 1.01 -9 0.02 -9 -1 C-5.23375329 -2.25541557 -3.62811066 -1.37061958 0 0 Z " fill="#D7BB82" transform="translate(105,70)"/>
<path d="M0 0 C0.99 0.33 1.98 0.66 3 1 C2.42978625 7.95660771 0.98697306 14.31427305 -1 21 C1.31 21 3.62 21 6 21 C6.33 21.66 6.66 22.32 7 23 C6.67 23.66 6.34 24.32 6 25 C1.38 25 -3.24 25 -8 25 C-7.47662586 16.10263961 -4.10066905 7.85802627 0 0 Z " fill="#E6CE87" transform="translate(58,91)"/>
<path d="M0 0 C1.32 0 2.64 0 4 0 C5.41822694 6.72604657 5.2762644 11.20072947 1.53515625 17.078125 C-0.74395587 19.9313646 -2.69693318 21.42027239 -6 23 C-6.99 22.67 -7.98 22.34 -9 22 C-7.99667352 16.05925113 -6.69087294 11.79813482 -3 7 C-2.34 7.33 -1.68 7.66 -1 8 C-0.67 5.36 -0.34 2.72 0 0 Z " fill="#BE9E52" transform="translate(84,53)"/>
<path d="M0 0 C0 4.62 0 9.24 0 14 C-4.06109369 15.01527342 -4.66966838 15.05430484 -8.25 13.5625 C-8.95640625 13.27503906 -9.6628125 12.98757812 -10.390625 12.69140625 C-10.92171875 12.46324219 -11.4528125 12.23507813 -12 12 C-12.33 9.69 -12.66 7.38 -13 5 C-9.20357009 2.46904672 -4.70214166 0 0 0 Z " fill="#E4CB75" transform="translate(88,74)"/>
<path d="M0 0 C0.66 0 1.32 0 2 0 C2 14.52 2 29.04 2 44 C-1.63 44 -5.26 44 -9 44 C-9 31.46 -9 18.92 -9 6 C-7.68 5.67 -6.36 5.34 -5 5 C-5.99 6.485 -5.99 6.485 -7 8 C-7.17145815 10.61409145 -7.23233432 13.11869674 -7.1953125 15.73046875 C-7.1924826 16.48088943 -7.18965271 17.23131012 -7.18673706 18.00447083 C-7.17555062 20.39897675 -7.15044928 22.79310731 -7.125 25.1875 C-7.11496819 26.81184355 -7.10584269 28.43619297 -7.09765625 30.06054688 C-7.07561637 34.040509 -7.0410974 38.02019088 -7 42 C-4.69 42.33 -2.38 42.66 0 43 C-0.00523682 41.89487061 -0.01047363 40.78974121 -0.01586914 39.65112305 C-0.03396215 35.55298675 -0.04544778 31.45485398 -0.05493164 27.35668945 C-0.059962 25.58259487 -0.06678699 23.80850444 -0.07543945 22.03442383 C-0.08756174 19.48517839 -0.09324126 16.93598774 -0.09765625 14.38671875 C-0.10281754 13.59287277 -0.10797882 12.79902679 -0.11329651 11.98112488 C-0.11362877 8.72343714 -0.03772826 6.11318479 1 3 C0.01 2.67 -0.98 2.34 -2 2 C-1.34 1.34 -0.68 0.68 0 0 Z " fill="#735858" transform="translate(41,67)"/>
<path d="M0 0 C4.67755752 0.39765979 7.72937922 1.75016915 11.625 4.3125 C12.54539062 4.90675781 13.46578125 5.50101563 14.4140625 6.11328125 C16.86924303 7.90459877 18.92150516 9.78976957 21 12 C18.03 11.505 18.03 11.505 15 11 C15 10.34 15 9.68 15 9 C10.87387385 8.55155147 10.87387385 8.55155147 8.25 11.5 C7.13625 12.7375 7.13625 12.7375 6 14 C5.67 13.34 5.34 12.68 5 12 C5.9375 9.375 5.9375 9.375 7 7 C6.34 7 5.68 7 5 7 C5 6.34 5 5.68 5 5 C4.071875 5.495 3.14375 5.99 2.1875 6.5 C-1 8 -1 8 -4 8 C-4.33 7.01 -4.66 6.02 -5 5 C-4.01 5 -3.02 5 -2 5 C-1.7834375 4.0409375 -1.7834375 4.0409375 -1.5625 3.0625 C-1 1 -1 1 0 0 Z " fill="#E1C67A" transform="translate(64,27)"/>
<path d="M0 0 C0.66 0.33 1.32 0.66 2 1 C-1.75 4 -1.75 4 -4 4 C-4.33 7.3 -4.66 10.6 -5 14 C-4.34 14.33 -3.68 14.66 -3 15 C-3.33 16.32 -3.66 17.64 -4 19 C-5.65 18.67 -7.3 18.34 -9 18 C-9.33 19.32 -9.66 20.64 -10 22 C-10 15.73 -10 9.46 -10 3 C-8.68 2.34 -7.36 1.68 -6 1 C-5.67 1.66 -5.34 2.32 -5 3 C-4.21625 2.484375 -3.4325 1.96875 -2.625 1.4375 C-1.75875 0.963125 -0.8925 0.48875 0 0 Z " fill="#906E46" transform="translate(54,40)"/>
<path d="M0 0 C0.33 0 0.66 0 1 0 C1 4.95 1 9.9 1 15 C5.62 14.67 10.24 14.34 15 14 C15.33 15.32 15.66 16.64 16 18 C12.99686252 19.50156874 10.20932478 19.09281204 6.875 19.0625 C5.59367187 19.05347656 4.31234375 19.04445313 2.9921875 19.03515625 C1.51105469 19.01775391 1.51105469 19.01775391 0 19 C0 18.01 0 17.02 0 16 C-0.66 15.34 -1.32 14.68 -2 14 C-2.01171875 12.01171875 -2.01171875 12.01171875 -1.6875 9.6875 C-1.57921875 8.88828125 -1.4709375 8.0890625 -1.359375 7.265625 C-0.9725851 4.82716693 -0.54388973 2.40865454 0 0 Z " fill="#9A763D" transform="translate(88,96)"/>
<path d="M0 0 C0.66 0 1.32 0 2 0 C1.33613126 4.02050843 0.08563932 7.53854947 -1.4375 11.3125 C-3.35290097 16.18404004 -4.89739783 20.88793539 -6 26 C-8.64 26 -11.28 26 -14 26 C-12.625 23.5 -12.625 23.5 -11 21 C-10.34 21 -9.68 21 -9 21 C-9.3403125 20.1028125 -9.3403125 20.1028125 -9.6875 19.1875 C-9.790625 18.465625 -9.89375 17.74375 -10 17 C-8.75 15.5625 -8.75 15.5625 -7 14 C-5.96210419 12.35666496 -4.96432076 10.68756133 -4 9 C-3.46375 8.154375 -2.9275 7.30875 -2.375 6.4375 C-1.13024548 4.23088972 -0.45776922 2.47195376 0 0 Z " fill="#D7BC69" transform="translate(56,90)"/>
<path d="M0 0 C2.62527189 -0.05382106 5.24944713 -0.09358313 7.875 -0.125 C8.62136719 -0.14175781 9.36773437 -0.15851563 10.13671875 -0.17578125 C12.09194461 -0.1933959 14.04742021 -0.10320189 16 0 C16.66 0.66 17.32 1.32 18 2 C17.67 2.66 17.34 3.32 17 4 C17.66 4.33 18.32 4.66 19 5 C15.26689567 6.18817968 11.72508355 6.11362739 7.828125 6.09765625 C6.8044986 6.09553383 6.8044986 6.09553383 5.76019287 6.09336853 C3.59008316 6.08779084 1.4200783 6.07524254 -0.75 6.0625 C-2.22525892 6.05748211 -3.70051947 6.05291971 -5.17578125 6.04882812 C-8.78388798 6.03782875 -12.39193375 6.02057953 -16 6 C-16 5.67 -16 5.34 -16 5 C-8.41 5 -0.82 5 7 5 C7 4.01 7 3.02 7 2 C4.69 1.67 2.38 1.34 0 1 C0 0.67 0 0.34 0 0 Z " fill="#B79C7C" transform="translate(57,111)"/>
<path d="M0 0 C0.33 0 0.66 0 1 0 C1.02505615 0.74161377 1.0501123 1.48322754 1.07592773 2.24731445 C1.19186132 5.60255328 1.31459985 8.95750944 1.4375 12.3125 C1.47681641 13.47974609 1.51613281 14.64699219 1.55664062 15.84960938 C1.59853516 16.96787109 1.64042969 18.08613281 1.68359375 19.23828125 C1.72025146 20.26993408 1.75690918 21.30158691 1.79467773 22.36450195 C1.90161242 25.10748258 1.90161242 25.10748258 3 28 C2.67 28.66 2.34 29.32 2 30 C2.66 29.67 3.32 29.34 4 29 C4.65772428 25.97065509 4.65772428 25.97065509 5 23 C5.33 23 5.66 23 6 23 C6 27.62 6 32.24 6 37 C1 38 1 38 0 38 C0 25.46 0 12.92 0 0 Z " fill="#A18165" transform="translate(99,73)"/>
<path d="M0 0 C0.33 0 0.66 0 1 0 C1.05840224 4.18744075 1.09373166 8.37477565 1.125 12.5625 C1.14175781 13.74392578 1.15851563 14.92535156 1.17578125 16.14257812 C1.2094585 22.15396759 1.11038894 27.34183122 -1 33 C-1.66 33 -2.32 33 -3 33 C-3.90413673 29.16275828 -4.10576898 25.62497726 -4.0625 21.6875 C-4.05347656 20.61886719 -4.04445313 19.55023438 -4.03515625 18.44921875 C-4.02355469 17.64097656 -4.01195313 16.83273438 -4 16 C-3.67 16.66 -3.34 17.32 -3 18 C-2.01 18 -1.02 18 0 18 C0 12.06 0 6.12 0 0 Z " fill="#C2A276" transform="translate(104,70)"/>
<path d="M0 0 C0.66 0 1.32 0 2 0 C2 2.31 2 4.62 2 7 C-7.41002278 11.22323462 -7.41002278 11.22323462 -12 13 C-12.66 12.01 -13.32 11.02 -14 10 C-14.99 9.34 -15.98 8.68 -17 8 C-16.38125 7.9175 -15.7625 7.835 -15.125 7.75 C-12.81562433 7.18741541 -12.81562433 7.18741541 -11.75 4.9375 C-11.5025 4.298125 -11.255 3.65875 -11 3 C-10 6 -10 6 -10 8 C-4.54912814 6.06428087 -4.54912814 6.06428087 -0.8125 1.875 C-0.544375 1.25625 -0.27625 0.6375 0 0 Z " fill="#CDB060" transform="translate(86,67)"/>
<path d="M0 0 C0 13.86 0 27.72 0 42 C0.99 42.33 1.98 42.66 3 43 C1.68 43 0.36 43 -1 43 C-2.3420958 39.00516796 -2.06713404 34.96686009 -2 30.8125 C-1.9188084 21.83898246 -2.36569237 12.94826831 -3 4 C-4.32 4.33 -5.64 4.66 -7 5 C-2.25 0 -2.25 0 0 0 Z " fill="#745A57" transform="translate(66,33)"/>
<path d="M0 0 C0.66 0.99 1.32 1.98 2 3 C4.20725073 3.36362818 4.20725073 3.36362818 6.625 3.1875 C7.85089844 3.14689453 7.85089844 3.14689453 9.1015625 3.10546875 C9.72804688 3.07066406 10.35453125 3.03585938 11 3 C10.01 3.495 10.01 3.495 9 4 C9 4.66 9 5.32 9 6 C3.06 6 -2.88 6 -9 6 C-9 4.68 -9 3.36 -9 2 C-6.94921875 1.77213542 -4.8984375 1.54427083 -2.84765625 1.31640625 C-0.98859771 1.18113386 -0.98859771 1.18113386 0 0 Z " fill="#A8884D" transform="translate(29,110)"/>
<path d="M0 0 C0.66 0.33 1.32 0.66 2 1 C2 3.97 2 6.94 2 10 C2.99 9.67 3.98 9.34 5 9 C4.67 10.98 4.34 12.96 4 15 C3.34 15 2.68 15 2 15 C1.773125 15.639375 1.54625 16.27875 1.3125 16.9375 C0 19 0 19 -2.625 19.75 C-3.40875 19.8325 -4.1925 19.915 -5 20 C-5 19.34 -5 18.68 -5 18 C-4.34 18 -3.68 18 -3 18 C-3 17.34 -3 16.68 -3 16 C-2.34 15.67 -1.68 15.34 -1 15 C-0.68758629 12.45058627 -0.48696579 9.99638487 -0.375 7.4375 C-0.33632813 6.72658203 -0.29765625 6.01566406 -0.2578125 5.28320312 C-0.16328217 3.52257575 -0.08054183 1.76132272 0 0 Z " fill="#BEA162" transform="translate(43,96)"/>
<path d="M0 0 C2.25 0.875 2.25 0.875 4 2 C4 2.66 4 3.32 4 4 C3.54625 4.391875 3.0925 4.78375 2.625 5.1875 C0.28151596 7.80138604 -0.17605418 10.64083629 -1 14 C-1.99 14 -2.98 14 -4 14 C-4 10.04 -4 6.08 -4 2 C-2.68 1.34 -1.36 0.68 0 0 Z " fill="#BA9E65" transform="translate(31,68)"/>
<path d="M0 0 C2 0.25 2 0.25 4 1 C4.33 1.99 4.66 2.98 5 4 C5.66 4.33 6.32 4.66 7 5 C7 5.66 7 6.32 7 7 C8.65 7.33 10.3 7.66 12 8 C12 8.66 12 9.32 12 10 C9.69 10 7.38 10 5 10 C4.67 9.34 4.34 8.68 4 8 C1.97536745 7.34786708 1.97536745 7.34786708 0 7 C-0.38133299 5.0085944 -0.71325582 3.00720923 -1 1 C-0.67 0.67 -0.34 0.34 0 0 Z " fill="#B0914C" transform="translate(44,71)"/>
<path d="M0 0 C1.9609375 0.68359375 1.9609375 0.68359375 4 2 C4.5390625 4.34765625 4.5390625 4.34765625 4.625 7.0625 C4.68478906 9.7061707 4.68478906 9.7061707 5 12 C5.66 12.33 6.32 12.66 7 13 C6.67 13.66 6.34 14.32 6 15 C6.66 15 7.32 15 8 15 C8 15.66 8 16.32 8 17 C6.02 16.67 4.04 16.34 2 16 C1.66388432 13.89627599 1.33120054 11.79200343 1 9.6875 C0.814375 8.51574219 0.62875 7.34398438 0.4375 6.13671875 C0 3 0 3 0 0 Z " fill="#AD8F55" transform="translate(72,99)"/>
<path d="M0 0 C0.33 0 0.66 0 1 0 C1.125 2.375 1.125 2.375 1 5 C0.34 5.66 -0.32 6.32 -1 7 C-3.30048265 11.4656428 -3.59211348 16.07316016 -4 21 C-5.32 21.33 -6.64 21.66 -8 22 C-7.05098979 14.54956166 -5.57070477 5.57070477 0 0 Z " fill="#E5CD74" transform="translate(58,93)"/>
<path d="M0 0 C0 4.62 0 9.24 0 14 C-0.99 13.67 -1.98 13.34 -3 13 C-3.33 11.02 -3.66 9.04 -4 7 C-4.66 7 -5.32 7 -6 7 C-5.75 4.625 -5.75 4.625 -5 2 C-1.95238095 0 -1.95238095 0 0 0 Z " fill="#A88848" transform="translate(56,52)"/>
<path d="M0 0 C1.32 0.33 2.64 0.66 4 1 C4 4.96 4 8.92 4 13 C3.01 12.67 2.02 12.34 1 12 C0.67 12.66 0.34 13.32 0 14 C0 9.38 0 4.76 0 0 Z " fill="#D6BC7B" transform="translate(27,82)"/>
<path d="M0 0 C0.33 0 0.66 0 1 0 C1 1.65 1 3.3 1 5 C1.66 4.67 2.32 4.34 3 4 C4.99960012 3.960008 7.00047242 3.95653201 9 4 C9 5.32 9 6.64 9 8 C4.545 9.485 4.545 9.485 0 11 C0 7.37 0 3.74 0 0 Z " fill="#E5CB7D" transform="translate(43,80)"/>
<path d="M0 0 C0.99 0.33 1.98 0.66 3 1 C2.42978625 7.95660771 0.98697306 14.31427305 -1 21 C0.65 21 2.3 21 4 21 C4 21.33 4 21.66 4 22 C1.69 22 -0.62 22 -3 22 C-2.55756133 18.38675085 -2.01433571 15.04638022 -0.9375 11.5625 C0.13771707 7.47667514 0.14753192 4.20465983 0 0 Z " fill="#E9D29B" transform="translate(58,91)"/>
<path d="M0 0 C0.66 0 1.32 0 2 0 C2 0.66 2 1.32 2 2 C2.66 2 3.32 2 4 2 C3.67 2.94875 3.34 3.8975 3 4.875 C1.82080703 8.88753162 1.91878157 12.61547901 2.125 16.765625 C2 19 2 19 0 22 C-0.19590444 18.52125243 -0.38031592 15.04199096 -0.5625 11.5625 C-0.61857422 10.56927734 -0.67464844 9.57605469 -0.73242188 8.55273438 C-0.78076172 7.60849609 -0.82910156 6.66425781 -0.87890625 5.69140625 C-0.9260376 4.81685791 -0.97316895 3.94230957 -1.02172852 3.04125977 C-1 1 -1 1 0 0 Z " fill="#DAC270" transform="translate(67,32)"/>
<path d="M0 0 C0.33 0 0.66 0 1 0 C1 4.95 1 9.9 1 15 C4.3 15 7.6 15 11 15 C11 15.33 11 15.66 11 16 C9.20866022 16.05391993 7.41686101 16.09275571 5.625 16.125 C4.62726563 16.14820312 3.62953125 16.17140625 2.6015625 16.1953125 C0 16 0 16 -2 14 C-2.01171875 12.01171875 -2.01171875 12.01171875 -1.6875 9.6875 C-1.57921875 8.88828125 -1.4709375 8.0890625 -1.359375 7.265625 C-0.9725851 4.82716693 -0.54388973 2.40865454 0 0 Z " fill="#907152" transform="translate(88,96)"/>
<path d="M0 0 C2.64 1.65 5.28 3.3 8 5 C6 6 4 7 2 8 C2.33 8.66 2.66 9.32 3 10 C1.0625 9.25 1.0625 9.25 -1 8 C-1.75 5.875 -1.75 5.875 -2 4 C-1.34 4 -0.68 4 0 4 C0 2.68 0 1.36 0 0 Z " fill="#A18566" transform="translate(94,63)"/>
<path d="M0 0 C0 1.32 0 2.64 0 4 C-0.66 4 -1.32 4 -2 4 C-2.33 4.66 -2.66 5.32 -3 6 C-3.66 5.67 -4.32 5.34 -5 5 C-5 6.98 -5 8.96 -5 11 C-5.33 11 -5.66 11 -6 11 C-6.33 7.37 -6.66 3.74 -7 0 C-4.3333581 -1.33332095 -2.83319697 -0.67102033 0 0 Z " fill="#B79867" transform="translate(94,63)"/>
<path d="M0 0 C1.875 0.3125 1.875 0.3125 4 1 C6.26954631 4.40431947 6.36549949 6.16524202 6.625 10.1875 C6.69976562 11.27417969 6.77453125 12.36085938 6.8515625 13.48046875 C6.90054688 14.31191406 6.94953125 15.14335938 7 16 C6.01 16 5.02 16 4 16 C4 18.31 4 20.62 4 23 C3.34 22.67 2.68 22.34 2 22 C2.88607595 15.41772152 2.88607595 15.41772152 3.5625 12.9375 C4.1937413 10.14200283 4.29186758 7.86030226 4 5 C2.12230858 2.15079947 2.12230858 2.15079947 0 0 Z " fill="#856B54" transform="translate(69,76)"/>
<path d="M0 0 C3.89006773 1.38780795 6.96558708 3.2152227 10.3125 5.625 C11.19550781 6.25664063 12.07851562 6.88828125 12.98828125 7.5390625 C13.65214844 8.02117188 14.31601563 8.50328125 15 9 C11.25 10.125 11.25 10.125 9 9 C9 8.34 9 7.68 9 7 C7.35 6.67 5.7 6.34 4 6 C4 5.01 4 4.02 4 3 C3.01 3 2.02 3 1 3 C0.67 2.01 0.34 1.02 0 0 Z " fill="#A78E76" transform="translate(70,29)"/>
<path d="M0 0 C2.00720923 0.28674418 4.0085944 0.61866701 6 1 C5 2 4 3 3 4 C2.34 4.721875 1.68 5.44375 1 6.1875 C-1 8 -1 8 -4 8 C-4.33 7.01 -4.66 6.02 -5 5 C-4.01 5 -3.02 5 -2 5 C-1.7834375 4.0409375 -1.7834375 4.0409375 -1.5625 3.0625 C-1 1 -1 1 0 0 Z " fill="#C8AD7C" transform="translate(64,27)"/>
<path d="M0 0 C1.29546919 3.88640757 0.37029611 4.94173375 -1.375 8.5625 C-1.83648437 9.53316406 -2.29796875 10.50382812 -2.7734375 11.50390625 C-3.51100644 13.00488253 -4.25207785 14.5041557 -5 16 C-6.32 15.67 -7.64 15.34 -9 15 C-7.625 13 -7.625 13 -6 11 C-5.34 11 -4.68 11 -4 11 C-4.3403125 10.1028125 -4.3403125 10.1028125 -4.6875 9.1875 C-4.790625 8.465625 -4.89375 7.74375 -5 7 C-3.6875 5.5 -3.6875 5.5 -2 4 C-0.82425289 1.90010348 -0.82425289 1.90010348 0 0 Z " fill="#D0B361" transform="translate(51,100)"/>
<path d="M0 0 C0.33 0 0.66 0 1 0 C1 4.62 1 9.24 1 14 C0.34 14 -0.32 14 -1 14 C-2.26237731 11.47524538 -2.09856404 9.68799534 -2.0625 6.875 C-2.05347656 5.96492188 -2.04445313 5.05484375 -2.03515625 4.1171875 C-2.02355469 3.41851562 -2.01195313 2.71984375 -2 2 C-1.34 2 -0.68 2 0 2 C0 1.34 0 0.68 0 0 Z " fill="#E1C283" transform="translate(102,74)"/>
<path d="M0 0 C0.66 0 1.32 0 2 0 C2.02706445 2.89589652 2.04687029 5.79153795 2.0625 8.6875 C2.07087891 9.50412109 2.07925781 10.32074219 2.08789062 11.16210938 C2.10442051 15.24499084 2.03035098 19.01651707 1 23 C0.67 23 0.34 23 0 23 C-0.02696009 20.2291017 -0.04681952 17.4584655 -0.0625 14.6875 C-0.07506836 13.50897461 -0.07506836 13.50897461 -0.08789062 12.30664062 C-0.09111328 11.54931641 -0.09433594 10.79199219 -0.09765625 10.01171875 C-0.10289307 9.31522217 -0.10812988 8.61872559 -0.11352539 7.90112305 C0 6 0 6 1 3 C0.01 2.67 -0.98 2.34 -2 2 C-1.34 1.34 -0.68 0.68 0 0 Z " fill="#694D4D" transform="translate(41,67)"/>
<path d="M0 0 C1.67542976 0.28604898 3.34385343 0.61781233 5 1 C5 2.65 5 4.3 5 6 C3.35 6.66 1.7 7.32 0 8 C-0.38063221 5.6739143 -0.71269945 3.33944736 -1 1 C-0.67 0.67 -0.34 0.34 0 0 Z " fill="#D9BB69" transform="translate(82,41)"/>
<path d="M0 0 C0.33 0.66 0.66 1.32 1 2 C3.64 2 6.28 2 9 2 C8.67 3.32 8.34 4.64 8 6 C4.7 5.67 1.4 5.34 -2 5 C-1.34 4.67 -0.68 4.34 0 4 C0 2.68 0 1.36 0 0 Z " fill="#9C7B48" transform="translate(104,110)"/>
<path d="M0 0 C0.33 0 0.66 0 1 0 C1 1.65 1 3.3 1 5 C4.63 5.66 8.26 6.32 12 7 C12 7.66 12 8.32 12 9 C8.71303767 9.79953138 7.28976808 10.09658936 4 9 C4 8.34 4 7.68 4 7 C2.68 7 1.36 7 0 7 C0 4.69 0 2.38 0 0 Z " fill="#BD9E59" transform="translate(75,83)"/>
<path d="M0 0 C0.33 0.66 0.66 1.32 1 2 C3.52733235 2.65555119 3.52733235 2.65555119 6 3 C6 3.66 6 4.32 6 5 C7.98 5 9.96 5 12 5 C12 5.33 12 5.66 12 6 C8.37 6 4.74 6 1 6 C0.67 4.02 0.34 2.04 0 0 Z " fill="#C9AF61" transform="translate(43,76)"/>
<path d="M0 0 C3.3 0 6.6 0 10 0 C10 1.65 10 3.3 10 5 C9.34 5 8.68 5 8 5 C8 4.01 8 3.02 8 2 C5.36 2.33 2.72 2.66 0 3 C0 2.01 0 1.02 0 0 Z " fill="#DDC36A" transform="translate(44,82)"/>
<path d="M0 0 C0.66 0.66 1.32 1.32 2 2 C0.68 6.62 -0.64 11.24 -2 16 C-2.33 16 -2.66 16 -3 16 C-3.33266291 9.79029227 -2.45029331 5.71735105 0 0 Z " fill="#EDD881" transform="translate(57,97)"/>
<path d="M0 0 C0.66 0 1.32 0 2 0 C2 1.98 2 3.96 2 6 C-0.64 6.66 -3.28 7.32 -6 8 C-5.38125 7.4225 -4.7625 6.845 -4.125 6.25 C-2.18652947 4.19750179 -1.09985751 2.56633418 0 0 Z " fill="#C4A45A" transform="translate(86,67)"/>
<path d="M0 0 C1.231394 3.69418201 0.64432764 6.2056261 0 10 C-0.433125 9.54625 -0.86625 9.0925 -1.3125 8.625 C-3.10798342 6.79975666 -3.10798342 6.79975666 -6 5 C-5.38125 4.9175 -4.7625 4.835 -4.125 4.75 C-1.81562433 4.18741541 -1.81562433 4.18741541 -0.75 1.9375 C-0.5025 1.298125 -0.255 0.65875 0 0 Z " fill="#C3A663" transform="translate(75,70)"/>
<path d="M0 0 C0.86625 0.556875 0.86625 0.556875 1.75 1.125 C1.75 1.785 1.75 2.445 1.75 3.125 C-0.25 4.75 -0.25 4.75 -2.25 6.125 C-2.25 5.135 -2.25 4.145 -2.25 3.125 C-3.24 3.455 -4.23 3.785 -5.25 4.125 C-5.58 3.135 -5.91 2.145 -6.25 1.125 C-2.80384615 -1.09038462 -2.80384615 -1.09038462 0 0 Z " fill="#A6865E" transform="translate(33.25,68.875)"/>
<path d="M0 0 C0 4.62 0 9.24 0 14 C-0.33 14 -0.66 14 -1 14 C-1 10.7 -1 7.4 -1 4 C-2.65 4 -4.3 4 -6 4 C-2.17391304 0 -2.17391304 0 0 0 Z " fill="#A28667" transform="translate(56,52)"/>
<path d="M0 0 C0.66 0.33 1.32 0.66 2 1 C-1.01887244 4.48331435 -3.56909529 5.79157144 -8 7 C-8 5.35 -8 3.7 -8 2 C-7.05125 2.04125 -6.1025 2.0825 -5.125 2.125 C-1.89755144 2.34973818 -1.89755144 2.34973818 0 0 Z " fill="#CFB367" transform="translate(51,89)"/>
<path d="M0 0 C2.1875 2.5 2.1875 2.5 4 5 C0.0507432 4.44894091 -3.34920174 3.61064629 -7 2 C-4.35261084 0.5393715 -3.10551666 0 0 0 Z " fill="#D9BC68" transform="translate(83,84)"/>
<path d="M0 0 C2.31 0 4.62 0 7 0 C7.33 0.99 7.66 1.98 8 3 C5.69 3 3.38 3 1 3 C0.67 2.01 0.34 1.02 0 0 Z " fill="#B99C53" transform="translate(48,78)"/>
<path d="M0 0 C0.33 0 0.66 0 1 0 C1.375 2.1875 1.375 2.1875 1 5 C-0.83961648 6.99022836 -2.79186148 8.38989899 -5 10 C-3.66654496 6.40992874 -2.1056769 3.20429093 0 0 Z " fill="#C6A956" transform="translate(81,60)"/>
<path d="M0 0 C1.98 0 3.96 0 6 0 C5.67 1.32 5.34 2.64 5 4 C3.35 4 1.7 4 0 4 C0 2.68 0 1.36 0 0 Z " fill="#D5B778" transform="translate(64,112)"/>
<path d="M0 0 C0.33 0.66 0.66 1.32 1 2 C-1.97 3.32 -4.94 4.64 -8 6 C-8 5.01 -8 4.02 -8 3 C-5.36 2.01 -2.72 1.02 0 0 Z " fill="#D9BD6B" transform="translate(87,74)"/>
<path d="M0 0 C-1 2 -1 2 -4.0625 3.125 C-5.5165625 3.558125 -5.5165625 3.558125 -7 4 C-7.66 3.01 -8.32 2.02 -9 1 C-5.64919071 -1.10976881 -3.77897651 -1.0497157 0 0 Z " fill="#C0A179" transform="translate(104,69)"/>
<path d="M0 0 C0.33 0.99 0.66 1.98 1 3 C-5.75 5.125 -5.75 5.125 -8 4 C-5.37801226 1.84622436 -3.35595828 0.59927826 0 0 Z " fill="#7D614E" transform="translate(43,60)"/>
<path d="M0 0 C1.04449911 3.13349732 0.93423645 3.98968256 0 7 C-1.32 7 -2.64 7 -4 7 C-2.79618552 4.50638429 -1.54571278 2.31856917 0 0 Z " fill="#DBC272" transform="translate(50,109)"/>
<path d="M0 0 C0.33 0 0.66 0 1 0 C0.67 3.3 0.34 6.6 0 10 C-0.66 9.34 -1.32 8.68 -2 8 C-1.42307692 1.42307692 -1.42307692 1.42307692 0 0 Z " fill="#A88959" transform="translate(88,91)"/>
<path d="M0 0 C1.32 0.33 2.64 0.66 4 1 C4 1.99 4 2.98 4 4 C3.34 4.66 2.68 5.32 2 6 C2 5.34 2 4.68 2 4 C1.34 4 0.68 4 0 4 C0 2.68 0 1.36 0 0 Z " fill="#9A782F" transform="translate(73,92)"/>
<path d="M0 0 C1.39195915 4.17587745 -0.17676781 6.13474776 -2 10 C-2.33 10 -2.66 10 -3 10 C-3.36923077 4.58461538 -3.36923077 4.58461538 -1.5 1.625 C-1.005 1.08875 -0.51 0.5525 0 0 Z " fill="#DCC165" transform="translate(77,59)"/>
<path d="M0 0 C0.33 0 0.66 0 1 0 C1 3.96 1 7.92 1 12 C0.01 11.67 -0.98 11.34 -2 11 C-2 10.34 -2 9.68 -2 9 C-1.34 9 -0.68 9 0 9 C0 6.03 0 3.06 0 0 Z " fill="#DDC37E" transform="translate(87,76)"/>
<path d="M0 0 C1.32 0.33 2.64 0.66 4 1 C3.67 2.65 3.34 4.3 3 6 C2.01 6 1.02 6 0 6 C0 4.02 0 2.04 0 0 Z " fill="#CDB374" transform="translate(27,82)"/>
</svg>
